#N canvas 135 189 1044 754 12;
#X obj 60 70 netreceive -u -b;
#X obj 59 108 oscparse;
#X msg 56 22 listen 10000;
#X obj 53 149 list trim;
#X obj 50 195 route oscControl;
#X obj 63 230 symbol;
#X obj 44 313 s;
#X obj 154 157 print s;
#X obj 455 585 *~;
#X obj 454 684 dac~;
#X floatatom 308 425 7 0 0 0 - - - 0;
#X floatatom 406 411 5 0 0 0 - - - 0;
#X obj 566 577 bng 19 250 50 0 empty empty empty 0 -10 0 12 #fcfcfc #000000 #000000;
#X obj 577 467 tgl 19 0 empty empty empty 0 -10 0 12 #fcfcfc #000000 #000000 0 1;
#X obj 544 650 tabwrite~ array1;
#X obj 375 510 osc~;
#X obj 580 526 metro 100;
#X obj 358 452 *;
#X floatatom 479 507 5 0 0 0 - - - 0;
#X obj 499 216 route slider1;
#X obj 442 165 r slider1;
#X obj 252 164 r slider2;
#X obj 309 215 route slider2;
#X obj 544 268 print s1;
#X obj 354 267 print s2;
#X obj 734 212 r toggle1;
#X obj 764 312 print t1;
#X obj 735 267 route toggle1;
#N canvas 0 50 450 250 (subpatch) 0;
#X array array1 100 float 3;
#A 0 0 0 0 0 0 0 0 0 0 0 0 0 0 0 0 0 0 0 0 0 0 0 0 0 0 0 0 0 0 0 0 0 0 0 0 0 0 0 0 0 0 0 0 0 0 0 0 0 0 0 0 0 0 0 0 0 0 0 0 0 0 0 0 0 0 0 0 0 0 0 0 0 0 0 0 0 0 0 0 0 0 0 0 0 0 0 0 0 0 0 0 0 0 0 0 0 0 0 0 0;
#X coords 0 1 100 -1 200 140 1;
#X restore 750 563 graph;
#X connect 0 0 1 0;
#X connect 1 0 3 0;
#X connect 1 0 7 0;
#X connect 2 0 0 0;
#X connect 3 0 4 0;
#X connect 4 0 5 0;
#X connect 4 0 6 0;
#X connect 5 0 6 1;
#X connect 8 0 9 0;
#X connect 8 0 9 1;
#X connect 8 0 14 0;
#X connect 10 0 17 0;
#X connect 11 0 17 1;
#X connect 12 0 14 0;
#X connect 13 0 16 0;
#X connect 15 0 8 0;
#X connect 16 0 12 0;
#X connect 17 0 15 0;
#X connect 18 0 8 1;
#X connect 19 0 23 0;
#X connect 19 0 18 0;
#X connect 20 0 19 0;
#X connect 21 0 22 0;
#X connect 22 0 10 0;
#X connect 22 0 24 0;
#X connect 25 0 27 0;
#X connect 27 0 26 0;
#X connect 27 0 13 0;
